<svg xmlns="http://www.w3.org/2000/svg" xmlns:xlink="http://www.w3.org/1999/xlink" version="1.1" width="197pt" height="165pt" viewBox="0 0 197 165">
<defs>
<path id="font_1_1" d="M.6589966 .23046875C.6759949 .23046875 .69400027 .23046875 .69400027 .25045777 .69400027 .27046205 .6759949 .27046205 .6589966 .27046205H.117996219C.100997928 .27046205 .08299255 .27046205 .08299255 .25045777 .08299255 .23046875 .100997928 .23046875 .117996219 .23046875H.6589966Z"/>
<path id="font_2_3" d="M.2899933 .35191346C.37199403 .37893678 .42999269 .4490509 .42999269 .52809146 .42999269 .6100464 .34199525 .6660156 .24598694 .6660156 .14498902 .6660156 .068984989 .60606387 .068984989 .53009036 .068984989 .49710084 .09098816 .47808839 .11999512 .47808839 .15098572 .47808839 .17098999 .50009158 .17098999 .5290985 .17098999 .57910159 .12399292 .57910159 .10899353 .57910159 .13999939 .62802127 .20599365 .64100649 .24198914 .64100649 .2829895 .64100649 .33799745 .6190338 .33799745 .5290985 .33799745 .51708987 .33599855 .45906068 .30999757 .4149933 .27999879 .36691285 .24598694 .36390687 .22099304 .36291505 .21299744 .36190797 .18899536 .35990907 .18199158 .35990907 .17399597 .35890199 .16699219 .35791017 .16699219 .3479004 .16699219 .33691407 .17399597 .33691407 .19099427 .33691407H.23498535C.31698609 .33691407 .35398866 .2686615 .35398866 .17037964 .35398866 .034469606 .2849884 .0055389406 .24099732 .0055389406 .19799805 .0055389406 .12298584 .022491456 .08799744 .08137512 .12298584 .07637024 .1539917 .09837341 .1539917 .1363678 .1539917 .17237854 .1269989 .19238281 .09799194 .19238281 .07398987 .19238281 .041992189 .17837525 .041992189 .1343689 .041992189 .043441774 .1349945-.022460938 .24398804-.022460938 .3659973-.022460938 .45700074 .06838989 .45700074 .17037964 .45700074 .252594 .3939972 .33088685 .2899933 .35191346Z"/>
<path id="font_2_2" d="M.1269989 .07699585 .23298645 .18003845C.3889923 .31811524 .44898988 .3721466 .44898988 .47216798 .44898988 .5860901 .35899354 .6660156 .23699951 .6660156 .12399292 .6660156 .049987794 .57411196 .049987794 .48516847 .049987794 .4291687 .099990848 .4291687 .102996829 .4291687 .11999512 .4291687 .15499878 .44117738 .15499878 .48217774 .15499878 .5081787 .13699341 .5341797 .101989749 .5341797 .09399414 .5341797 .09199524 .5341797 .08898926 .5331726 .11199951 .59806826 .1659851 .63500979 .22399903 .63500979 .31498719 .63500979 .35798646 .5541382 .35798646 .47216798 .35798646 .39215089 .30799867 .31311036 .25299073 .25108338L.06098938 .036987306C.049987794 .025985718 .049987794 .023986817 .049987794 0H.42099L.44898988 .17404175H.42399598C.4189911 .14402771 .4119873 .1000061 .4019928 .084991458 .394989 .07699585 .32899476 .07699585 .30699159 .07699585H.1269989Z"/>
<path id="font_2_1" d="M.2939911 .64004519C.2939911 .66400149 .2939911 .6660156 .2709961 .6660156 .20899964 .60227969 .12098694 .60227969 .08898926 .60227969V.57128909C.10899353 .57128909 .16799927 .57128909 .21998596 .5972748V.07902527C.21998596 .042999269 .21699524 .0309906 .1269989 .0309906H.09498596V0C.12998963 .0029907227 .21699524 .0029907227 .25698854 .0029907227 .29699708 .0029907227 .38398744 .0029907227 .4189911 0V.0309906H.3869934C.29699708 .0309906 .2939911 .041992189 .2939911 .07902527V.64004519Z"/>
<path id="font_2_4" d="M.2939911 .16503906V.07800293C.2939911 .041992189 .2919922 .0309906 .21798706 .0309906H.19699097V0C.23799134 .0029907227 .2899933 .0029907227 .33198548 .0029907227 .37399293 .0029907227 .4269867 .0029907227 .46798707 0V.0309906H.44699098C.37298585 .0309906 .37098695 .041992189 .37098695 .07800293V.16503906H.47099305V.19602967H.37098695V.65075686C.37098695 .67074587 .37098695 .6767578 .35499574 .6767578 .34599305 .6767578 .34298707 .6767578 .33499146 .66474917L.027999878 .19602967V.16503906H.2939911M.2999878 .19602967H.055999757L.2999878 .5688019V.19602967Z"/>
<clipPath id="clip_3">
<path transform="matrix(1.00003,0,0,-1,1.0964966,154.649)" d="M0-8.53738H194.26912V152.85158H0Z"/>
</clipPath>
<path id="font_4_1" d="M.33399964 .30233766C.33999635 .32835389 .36299134 .42037965 .43299867 .42037965 .43798829 .42037965 .46199037 .42037965 .48298646 .40734864 .45498658 .402359 .43499757 .37734986 .43499757 .35334779 .43499757 .33735658 .44599916 .31835938 .47299195 .31835938 .49499513 .31835938 .5269928 .3363495 .5269928 .37635804 .5269928 .42837525 .46798707 .4423828 .43399049 .4423828 .37599183 .4423828 .34098817 .38935853 .32899476 .36634828 .3039856 .43237306 .25 .4423828 .22099304 .4423828 .116989139 .4423828 .05999756 .3133545 .05999756 .28834535 .05999756 .27833558 .069992069 .27833558 .07199097 .27833558 .07998657 .27833558 .08299255 .28033448 .084991458 .28933717 .11898804 .39535523 .18499756 .42037965 .21899414 .42037965 .23799134 .42037965 .272995 .4113617 .272995 .35334779 .272995 .32235719 .2559967 .25532533 .21899414 .11528015 .20298767 .053268434 .16799927 .011245728 .12399292 .011245728 .117996219 .011245728 .09498596 .011245728 .07398987 .024276734 .09899902 .029266358 .12098694 .05027771 .12098694 .07827759 .12098694 .105270389 .09899902 .11328125 .083999637 .11328125 .053985597 .11328125 .0289917 .08728027 .0289917 .055267335 .0289917 .009246826 .07899475-.0107421879 .12298584-.0107421879 .18899536-.0107421879 .22499085 .059280397 .22799683 .0652771 .23999024 .028274537 .27598573-.0107421879 .33599855-.0107421879 .43899537-.0107421879 .49598695 .118270877 .49598695 .14328003 .49598695 .1532898 .4869995 .1532898 .48399354 .1532898 .47499085 .1532898 .47299195 .14929199 .47099305 .14228821 .43798829 .03527832 .36999513 .011245728 .33799745 .011245728 .29899598 .011245728 .2829895 .043273927 .2829895 .07727051 .2829895 .09927368 .2889862 .121276859 .2999878 .16529846L.33399964 .30233766Z"/>
<path id="font_4_2" d="M.48599244 .38136292C.48999024 .39537049 .48999024 .39736939 .48999024 .40437318 .48999024 .42237855 .47599793 .43138124 .46099855 .43138124 .45098878 .43138124 .43499757 .42536927 .42599488 .41036988 .42399598 .405365 .41600038 .37435914 .4119873 .35635377 .40499879 .33035279 .397995 .30334474 .3919983 .27633668L.34700013 .09628296C.34298707 .08126831 .2999878 .011245728 .23399353 .011245728 .18299866 .011245728 .17199707 .055267335 .17199707 .0922699 .17199707 .1382904 .18899536 .20030213 .22299195 .28833009 .23899842 .3293457 .24299622 .3403473 .24299622 .36035157 .24299622 .405365 .21099854 .4423828 .16099549 .4423828 .06599426 .4423828 .0289917 .29733277 .0289917 .28833009 .0289917 .27833558 .038986207 .27833558 .040985109 .27833558 .050994874 .27833558 .051986696 .28033448 .056991579 .29634095 .083999637 .3903656 .12399292 .42037965 .1579895 .42037965 .1659851 .42037965 .18299866 .42037965 .18299866 .3883667 .18299866 .36335755 .17298889 .3373413 .1659851 .31834413 .12599182 .21231079 .10798645 .1552887 .10798645 .10827637 .10798645 .019256592 .17098999-.0107421879 .22999573-.0107421879 .2689972-.0107421879 .30299378 .0062561037 .33099366 .03425598 .31799317-.017745972 .30599977-.06674194 .2659912-.11973572 .23999024-.15385437 .20199585-.18309021 .1559906-.18309021 .14199829-.18309021 .09700012-.18005371 .07998657-.14074707 .09599304-.14074707 .10899353-.14074707 .12298584-.1287384 .1329956-.11973572 .14299011-.10673523 .14299011-.08773804 .14299011-.056747438 .115997318-.052734376 .10598755-.052734376 .08299255-.052734376 .049987794-.068740848 .049987794-.11773682 .049987794-.16796875 .09399414-.20507813 .1559906-.20507813 .25898744-.20507813 .3619995-.11373901 .3899994-.00074768069L.48599244 .38136292Z"/>
</defs>
<path transform="matrix(1.00003,0,0,-1,1.0964966,154.649)" stroke-width=".19925" stroke-linecap="butt" stroke-miterlimit="10" stroke-linejoin="miter" fill="none" stroke="#929292" d="M27.75273 26.33531V29.17012M55.50546 26.33531V29.17012M83.2582 26.33531V29.17012M111.01093 26.33531V29.17012M138.76366 26.33531V29.17012M166.51639 26.33531V29.17012"/>
<path transform="matrix(1.00003,0,0,-1,1.0964966,154.649)" stroke-width=".19925" stroke-linecap="butt" stroke-miterlimit="10" stroke-linejoin="miter" fill="none" stroke="#929292" d="M13.87636 25.62682V29.87862M41.62909 25.62682V29.87862M69.38182 25.62682V29.87862M124.88728 25.62682V29.87862M152.64002 25.62682V29.87862M180.39275 25.62682V29.87862"/>
<path transform="matrix(1.00003,0,0,-1,1.0964966,154.649)" stroke-width=".19925" stroke-linecap="butt" stroke-miterlimit="10" stroke-linejoin="miter" fill="none" stroke="#929292" d="M95.71713 13.87636H98.55196M95.71713 41.62909H98.55196M95.71713 69.38182H98.55196M95.71713 97.13455H98.55196M95.71713 124.88728H98.55196"/>
<path transform="matrix(1.00003,0,0,-1,1.0964966,154.649)" stroke-width=".19925" stroke-linecap="butt" stroke-miterlimit="10" stroke-linejoin="miter" fill="none" stroke="#929292" d="M95.00865 0H99.26044M95.00865 55.50546H99.26044M95.00865 83.2582H99.26044M95.00865 111.01093H99.26044M95.00865 138.76366H99.26044"/>
<path transform="matrix(1.00003,0,0,-1,1.0964966,154.649)" stroke-width=".3985" stroke-linecap="butt" stroke-miterlimit="10" stroke-linejoin="miter" fill="none" stroke="#000000" d="M0 27.75273H192.2766"/>
<path transform="matrix(1.00003,0,0,-1,193.37888,126.89627)" d="M1.99252 0-1.19551 1.59401 0 0-1.19551-1.59401"/>
<path transform="matrix(1.00003,0,0,-1,1.0964966,154.649)" stroke-width=".3985" stroke-linecap="butt" stroke-miterlimit="10" stroke-linejoin="miter" fill="none" stroke="#000000" d="M97.13455-8.53738V150.85906"/>
<path transform="matrix(0,-1,-1.00003,-0,98.23396,3.7899476)" d="M1.99252 0-1.19551 1.59401 0 0-1.19551-1.59401"/>
<use data-text="&#x2212;" xlink:href="#font_1_1" transform="matrix(9.962899,0,0,-9.9626,8.607719,138.962)"/>
<use data-text="3" xlink:href="#font_2_3" transform="matrix(9.962899,0,0,-9.9626,16.356949,138.962)"/>
<use data-text="&#x2212;" xlink:href="#font_1_1" transform="matrix(9.962899,0,0,-9.9626,36.361558,138.962)"/>
<use data-text="2" xlink:href="#font_2_2" transform="matrix(9.962899,0,0,-9.9626,44.110788,138.962)"/>
<use data-text="&#x2212;" xlink:href="#font_1_1" transform="matrix(9.962899,0,0,-9.9626,64.11539,138.962)"/>
<use data-text="1" xlink:href="#font_2_1" transform="matrix(9.962899,0,0,-9.9626,71.86462,138.962)"/>
<use data-text="1" xlink:href="#font_2_1" transform="matrix(9.962899,0,0,-9.9626,123.49718,138.962)"/>
<use data-text="2" xlink:href="#font_2_2" transform="matrix(9.962899,0,0,-9.9626,151.25002,138.962)"/>
<use data-text="3" xlink:href="#font_2_3" transform="matrix(9.962899,0,0,-9.9626,179.00383,138.962)"/>
<use data-text="&#x2212;" xlink:href="#font_1_1" transform="matrix(9.962899,0,0,-9.9626,79.857868,157.444)"/>
<use data-text="1" xlink:href="#font_2_1" transform="matrix(9.962899,0,0,-9.9626,87.60709,157.444)"/>
<use data-text="1" xlink:href="#font_2_1" transform="matrix(9.962899,0,0,-9.9626,87.6061,102.354007)"/>
<use data-text="2" xlink:href="#font_2_2" transform="matrix(9.962899,0,0,-9.9626,87.6061,74.601009)"/>
<use data-text="3" xlink:href="#font_2_3" transform="matrix(9.962899,0,0,-9.9626,87.6061,46.848)"/>
<use data-text="4" xlink:href="#font_2_4" transform="matrix(9.962899,0,0,-9.9626,87.6061,19.096009)"/>
<g clip-path="url(#clip_3)">
<path transform="matrix(1.00003,0,0,-1,1.0964966,154.649)" stroke-width=".79701" stroke-linecap="butt" stroke-miterlimit="10" stroke-linejoin="miter" fill="none" stroke="#0000ff" d="M20.4293 107.7345 15.00958 110.44427 16.14282 109.87767 17.27605 109.31107 18.40929 108.74445 19.54253 108.17783 20.67577 107.6112 21.80899 107.04457 22.94223 106.47798 24.07547 105.91138 25.20871 105.34473 26.34193 104.77812 27.47517 104.2115 28.60841 103.64488 29.74164 103.07826 30.87488 102.51166 32.0081 101.94504 33.14136 101.37843 34.27458 100.81178 35.40782 100.24516 36.54105 99.67856 37.6743 99.11194 38.80753 98.54533 39.94077 97.9787 41.07399 97.4121"/>
<path transform="matrix(-.8943869,-.44717,-.44718344,.89436,22.030476,47.166505)" d="M6.63033 0 2.08023 1.5167 .56355 0 2.08023-1.5167Z" fill="#0000ff"/>
<path transform="matrix(-.8943869,-.44717,-.44718344,.89436,22.030476,47.166505)" stroke-width=".79701" stroke-linecap="butt" stroke-miterlimit="10" stroke-linejoin="miter" fill="none" stroke="#0000ff" d="M6.63033 0 2.08023 1.5167 .56355 0 2.08023-1.5167Z"/>
<path transform="matrix(1.00003,0,0,-1,1.0964966,154.649)" stroke-width=".79701" stroke-linecap="butt" stroke-miterlimit="10" stroke-linejoin="miter" fill="none" stroke="#0000ff" d="M42.18414 96.85703 43.29425 96.30196 44.40436 95.74692 45.51447 95.19186 46.62459 94.6368 47.7347 94.08176 48.8448 93.52669 49.95491 92.97165 51.06502 92.4166 52.17513 91.86153 53.28523 91.30647 54.39534 90.7514 55.50546 90.19637 56.61557 89.64131 57.72568 89.08624 58.83578 88.5312 59.94589 87.97614 61.056 87.4211 62.1661 86.86604 63.27621 86.31097 64.38634 85.75594 65.49644 85.20087 66.60655 84.64583 67.71666 84.09077 68.82677 83.5357"/>
<path transform="matrix(1.00003,0,0,-1,1.0964966,154.649)" stroke-width=".79701" stroke-linecap="butt" stroke-miterlimit="10" stroke-linejoin="miter" fill="none" stroke="#0000ff" d="M69.93687 81.06017 72.20335 72.54575 74.46983 64.77173 76.73631 57.73808 79.00279 51.44482 81.26929 45.89197 83.53577 41.07948 85.80225 37.00739 88.06871 33.67567 90.3352 31.08437 92.60168 29.23343 94.86816 28.12288 97.13464 27.75273 99.40114 28.12294 101.66762 29.23357 103.9341 31.08456 106.20058 33.67595 108.46706 37.00772 110.73355 41.0799 113.00002 45.89244 115.2665 51.44537 117.53297 57.7387 119.79947 64.7724 122.06595 72.5465 124.33243 81.06097"/>
<path transform="matrix(1.00003,0,0,-1,1.0964966,154.649)" stroke-width=".79701" stroke-linecap="butt" stroke-miterlimit="10" stroke-linejoin="miter" fill="none" stroke="#0000ff" d="M125.44234 137.65357 127.73193 133.07437 130.02155 128.4951 132.31114 123.91591 134.60074 119.33675 136.89034 114.75755 139.17995 110.17838 141.46955 105.59909 143.75914 101.01991 146.04874 96.44073 148.33835 91.86156 150.62795 87.28236 152.91754 82.7031 155.20714 78.1239 157.49675 73.54474 159.78635 68.96555 162.07595 64.38637 164.36554 59.80708 166.65515 55.2279 168.94475 50.64873 171.23435 46.06955 173.52394 41.49036 175.81356 36.91109 178.10315 32.3319 177.11634 34.30568"/>
<path transform="matrix(.44718344,.89436,.8943869,-.44717,177.96613,119.839298)" d="M6.63033 0 2.08023 1.5167 .56355 0 2.08023-1.5167Z" fill="#0000ff"/>
<path transform="matrix(.44718344,.89436,.8943869,-.44717,177.96613,119.839298)" stroke-width=".79701" stroke-linecap="butt" stroke-miterlimit="10" stroke-linejoin="miter" fill="none" stroke="#0000ff" d="M6.63033 0 2.08023 1.5167 .56355 0 2.08023-1.5167Z"/>
</g>
<path transform="matrix(1.00003,0,0,-1,1.0964966,154.649)" d="M45.6142 97.13455C45.6142 99.3355 43.83003 101.11966 41.62909 101.11966 39.42815 101.11966 37.64398 99.3355 37.64398 97.13455 37.64398 94.93361 39.42815 93.14944 41.62909 93.14944 43.83003 93.14944 45.6142 94.93361 45.6142 97.13455ZM41.62909 97.13455" fill="#ffffff"/>
<path transform="matrix(1.00003,0,0,-1,1.0964966,154.649)" stroke-width=".3985" stroke-linecap="butt" stroke-miterlimit="10" stroke-linejoin="miter" fill="none" stroke="#0000ff" d="M45.6142 97.13455C45.6142 99.3355 43.83003 101.11966 41.62909 101.11966 39.42815 101.11966 37.64398 99.3355 37.64398 97.13455 37.64398 94.93361 39.42815 93.14944 41.62909 93.14944 43.83003 93.14944 45.6142 94.93361 45.6142 97.13455ZM41.62909 97.13455"/>
<path transform="matrix(1.00003,0,0,-1,1.0964966,154.649)" d="" fill="#ffffff"/>
<path transform="matrix(1.00003,0,0,-1,1.0964966,154.649)" stroke-width=".3985" stroke-linecap="butt" stroke-miterlimit="10" stroke-linejoin="miter" fill="none" stroke="#0000ff" d=""/>
<path transform="matrix(1.00003,0,0,-1,1.0964966,154.649)" d="M45.6142 55.50546C45.6142 57.7064 43.83003 59.49057 41.62909 59.49057 39.42815 59.49057 37.64398 57.7064 37.64398 55.50546 37.64398 53.30452 39.42815 51.52036 41.62909 51.52036 43.83003 51.52036 45.6142 53.30452 45.6142 55.50546ZM41.62909 55.50546" fill="#0000ff"/>
<path transform="matrix(1.00003,0,0,-1,1.0964966,154.649)" stroke-width=".3985" stroke-linecap="butt" stroke-miterlimit="10" stroke-linejoin="miter" fill="none" stroke="#0000ff" d="M45.6142 55.50546C45.6142 57.7064 43.83003 59.49057 41.62909 59.49057 39.42815 59.49057 37.64398 57.7064 37.64398 55.50546 37.64398 53.30452 39.42815 51.52036 41.62909 51.52036 43.83003 51.52036 45.6142 53.30452 45.6142 55.50546ZM41.62909 55.50546"/>
<path transform="matrix(1.00003,0,0,-1,1.0964966,154.649)" d="" fill="#0000ff"/>
<path transform="matrix(1.00003,0,0,-1,1.0964966,154.649)" stroke-width=".3985" stroke-linecap="butt" stroke-miterlimit="10" stroke-linejoin="miter" fill="none" stroke="#0000ff" d=""/>
<path transform="matrix(1.00003,0,0,-1,1.0964966,154.649)" d="M73.36693 83.2582C73.36693 85.45914 71.58276 87.2433 69.38182 87.2433 67.18088 87.2433 65.39671 85.45914 65.39671 83.2582 65.39671 81.05725 67.18088 79.27309 69.38182 79.27309 71.58276 79.27309 73.36693 81.05725 73.36693 83.2582ZM69.38182 83.2582" fill="#ffffff"/>
<path transform="matrix(1.00003,0,0,-1,1.0964966,154.649)" stroke-width=".3985" stroke-linecap="butt" stroke-miterlimit="10" stroke-linejoin="miter" fill="none" stroke="#0000ff" d="M73.36693 83.2582C73.36693 85.45914 71.58276 87.2433 69.38182 87.2433 67.18088 87.2433 65.39671 85.45914 65.39671 83.2582 65.39671 81.05725 67.18088 79.27309 69.38182 79.27309 71.58276 79.27309 73.36693 81.05725 73.36693 83.2582ZM69.38182 83.2582"/>
<path transform="matrix(1.00003,0,0,-1,1.0964966,154.649)" d="" fill="#ffffff"/>
<path transform="matrix(1.00003,0,0,-1,1.0964966,154.649)" stroke-width=".3985" stroke-linecap="butt" stroke-miterlimit="10" stroke-linejoin="miter" fill="none" stroke="#0000ff" d=""/>
<path transform="matrix(1.00003,0,0,-1,1.0964966,154.649)" d="M128.87239 83.2582C128.87239 85.45914 127.08823 87.2433 124.88728 87.2433 122.68634 87.2433 120.90218 85.45914 120.90218 83.2582 120.90218 81.05725 122.68634 79.27309 124.88728 79.27309 127.08823 79.27309 128.87239 81.05725 128.87239 83.2582ZM124.88728 83.2582" fill="#0000ff"/>
<path transform="matrix(1.00003,0,0,-1,1.0964966,154.649)" stroke-width=".3985" stroke-linecap="butt" stroke-miterlimit="10" stroke-linejoin="miter" fill="none" stroke="#0000ff" d="M128.87239 83.2582C128.87239 85.45914 127.08823 87.2433 124.88728 87.2433 122.68634 87.2433 120.90218 85.45914 120.90218 83.2582 120.90218 81.05725 122.68634 79.27309 124.88728 79.27309 127.08823 79.27309 128.87239 81.05725 128.87239 83.2582ZM124.88728 83.2582"/>
<path transform="matrix(1.00003,0,0,-1,1.0964966,154.649)" d="" fill="#0000ff"/>
<path transform="matrix(1.00003,0,0,-1,1.0964966,154.649)" stroke-width=".3985" stroke-linecap="butt" stroke-miterlimit="10" stroke-linejoin="miter" fill="none" stroke="#0000ff" d=""/>
<path transform="matrix(1.00003,0,0,-1,1.0964966,154.649)" d="M128.87239 138.76366C128.87239 140.9646 127.08823 142.74877 124.88728 142.74877 122.68634 142.74877 120.90218 140.9646 120.90218 138.76366 120.90218 136.56272 122.68634 134.77855 124.88728 134.77855 127.08823 134.77855 128.87239 136.56272 128.87239 138.76366ZM124.88728 138.76366" fill="#ffffff"/>
<path transform="matrix(1.00003,0,0,-1,1.0964966,154.649)" stroke-width=".3985" stroke-linecap="butt" stroke-miterlimit="10" stroke-linejoin="miter" fill="none" stroke="#0000ff" d="M128.87239 138.76366C128.87239 140.9646 127.08823 142.74877 124.88728 142.74877 122.68634 142.74877 120.90218 140.9646 120.90218 138.76366 120.90218 136.56272 122.68634 134.77855 124.88728 134.77855 127.08823 134.77855 128.87239 136.56272 128.87239 138.76366ZM124.88728 138.76366"/>
<path transform="matrix(1.00003,0,0,-1,1.0964966,154.649)" d="" fill="#ffffff"/>
<path transform="matrix(1.00003,0,0,-1,1.0964966,154.649)" stroke-width=".3985" stroke-linecap="butt" stroke-miterlimit="10" stroke-linejoin="miter" fill="none" stroke="#0000ff" d=""/>
<use data-text="x" xlink:href="#font_4_1" transform="matrix(9.962899,0,0,-9.9626,186.15305,123.377)"/>
<use data-text="y" xlink:href="#font_4_2" transform="matrix(9.962899,0,0,-9.9626,101.74552,9.623001)"/>
</svg>
