<svg xmlns="http://www.w3.org/2000/svg" xmlns:xlink="http://www.w3.org/1999/xlink" version="1.1" width="203pt" height="172pt" viewBox="0 0 203 172">
<defs>
<path id="font_1_1" d="M.2939911 .64004519C.2939911 .66400149 .2939911 .6660156 .2709961 .6660156 .20899964 .60227969 .12098694 .60227969 .08898926 .60227969V.57128909C.10899353 .57128909 .16799927 .57128909 .21998596 .5972748V.07902527C.21998596 .042999269 .21699524 .0309906 .1269989 .0309906H.09498596V0C.12998963 .0029907227 .21699524 .0029907227 .25698854 .0029907227 .29699708 .0029907227 .38398744 .0029907227 .4189911 0V.0309906H.3869934C.29699708 .0309906 .2939911 .041992189 .2939911 .07902527V.64004519Z"/>
<path id="font_1_2" d="M.1269989 .07699585 .23298645 .18003845C.3889923 .31811524 .44898988 .3721466 .44898988 .47216798 .44898988 .5860901 .35899354 .6660156 .23699951 .6660156 .12399292 .6660156 .049987794 .57411196 .049987794 .48516847 .049987794 .4291687 .099990848 .4291687 .102996829 .4291687 .11999512 .4291687 .15499878 .44117738 .15499878 .48217774 .15499878 .5081787 .13699341 .5341797 .101989749 .5341797 .09399414 .5341797 .09199524 .5341797 .08898926 .5331726 .11199951 .59806826 .1659851 .63500979 .22399903 .63500979 .31498719 .63500979 .35798646 .5541382 .35798646 .47216798 .35798646 .39215089 .30799867 .31311036 .25299073 .25108338L.06098938 .036987306C.049987794 .025985718 .049987794 .023986817 .049987794 0H.42099L.44898988 .17404175H.42399598C.4189911 .14402771 .4119873 .1000061 .4019928 .084991458 .394989 .07699585 .32899476 .07699585 .30699159 .07699585H.1269989Z"/>
<path id="font_1_3" d="M.2899933 .35191346C.37199403 .37893678 .42999269 .4490509 .42999269 .52809146 .42999269 .6100464 .34199525 .6660156 .24598694 .6660156 .14498902 .6660156 .068984989 .60606387 .068984989 .53009036 .068984989 .49710084 .09098816 .47808839 .11999512 .47808839 .15098572 .47808839 .17098999 .50009158 .17098999 .5290985 .17098999 .57910159 .12399292 .57910159 .10899353 .57910159 .13999939 .62802127 .20599365 .64100649 .24198914 .64100649 .2829895 .64100649 .33799745 .6190338 .33799745 .5290985 .33799745 .51708987 .33599855 .45906068 .30999757 .4149933 .27999879 .36691285 .24598694 .36390687 .22099304 .36291505 .21299744 .36190797 .18899536 .35990907 .18199158 .35990907 .17399597 .35890199 .16699219 .35791017 .16699219 .3479004 .16699219 .33691407 .17399597 .33691407 .19099427 .33691407H.23498535C.31698609 .33691407 .35398866 .2686615 .35398866 .17037964 .35398866 .034469606 .2849884 .0055389406 .24099732 .0055389406 .19799805 .0055389406 .12298584 .022491456 .08799744 .08137512 .12298584 .07637024 .1539917 .09837341 .1539917 .1363678 .1539917 .17237854 .1269989 .19238281 .09799194 .19238281 .07398987 .19238281 .041992189 .17837525 .041992189 .1343689 .041992189 .043441774 .1349945-.022460938 .24398804-.022460938 .3659973-.022460938 .45700074 .06838989 .45700074 .17037964 .45700074 .252594 .3939972 .33088685 .2899933 .35191346Z"/>
<path id="font_1_4" d="M.2939911 .16503906V.07800293C.2939911 .041992189 .2919922 .0309906 .21798706 .0309906H.19699097V0C.23799134 .0029907227 .2899933 .0029907227 .33198548 .0029907227 .37399293 .0029907227 .4269867 .0029907227 .46798707 0V.0309906H.44699098C.37298585 .0309906 .37098695 .041992189 .37098695 .07800293V.16503906H.47099305V.19602967H.37098695V.65075686C.37098695 .67074587 .37098695 .6767578 .35499574 .6767578 .34599305 .6767578 .34298707 .6767578 .33499146 .66474917L.027999878 .19602967V.16503906H.2939911M.2999878 .19602967H.055999757L.2999878 .5688019V.19602967Z"/>
<clipPath id="clip_2">
<path transform="matrix(1.00002,0,0,-1.00006,7.428856,161.97774)" d="M0-1.22116H194.27155V160.17063H0Z"/>
</clipPath>
<path id="font_3_1" d="M.33399964 .30233766C.33999635 .32835389 .36299134 .42037965 .43299867 .42037965 .43798829 .42037965 .46199037 .42037965 .48298646 .40734864 .45498658 .402359 .43499757 .37734986 .43499757 .35334779 .43499757 .33735658 .44599916 .31835938 .47299195 .31835938 .49499513 .31835938 .5269928 .3363495 .5269928 .37635804 .5269928 .42837525 .46798707 .4423828 .43399049 .4423828 .37599183 .4423828 .34098817 .38935853 .32899476 .36634828 .3039856 .43237306 .25 .4423828 .22099304 .4423828 .116989139 .4423828 .05999756 .3133545 .05999756 .28834535 .05999756 .27833558 .069992069 .27833558 .07199097 .27833558 .07998657 .27833558 .08299255 .28033448 .084991458 .28933717 .11898804 .39535523 .18499756 .42037965 .21899414 .42037965 .23799134 .42037965 .272995 .4113617 .272995 .35334779 .272995 .32235719 .2559967 .25532533 .21899414 .11528015 .20298767 .053268434 .16799927 .011245728 .12399292 .011245728 .117996219 .011245728 .09498596 .011245728 .07398987 .024276734 .09899902 .029266358 .12098694 .05027771 .12098694 .07827759 .12098694 .105270389 .09899902 .11328125 .083999637 .11328125 .053985597 .11328125 .0289917 .08728027 .0289917 .055267335 .0289917 .009246826 .07899475-.0107421879 .12298584-.0107421879 .18899536-.0107421879 .22499085 .059280397 .22799683 .0652771 .23999024 .028274537 .27598573-.0107421879 .33599855-.0107421879 .43899537-.0107421879 .49598695 .118270877 .49598695 .14328003 .49598695 .1532898 .4869995 .1532898 .48399354 .1532898 .47499085 .1532898 .47299195 .14929199 .47099305 .14228821 .43798829 .03527832 .36999513 .011245728 .33799745 .011245728 .29899598 .011245728 .2829895 .043273927 .2829895 .07727051 .2829895 .09927368 .2889862 .121276859 .2999878 .16529846L.33399964 .30233766Z"/>
<path id="font_3_2" d="M.48599244 .38136292C.48999024 .39537049 .48999024 .39736939 .48999024 .40437318 .48999024 .42237855 .47599793 .43138124 .46099855 .43138124 .45098878 .43138124 .43499757 .42536927 .42599488 .41036988 .42399598 .405365 .41600038 .37435914 .4119873 .35635377 .40499879 .33035279 .397995 .30334474 .3919983 .27633668L.34700013 .09628296C.34298707 .08126831 .2999878 .011245728 .23399353 .011245728 .18299866 .011245728 .17199707 .055267335 .17199707 .0922699 .17199707 .1382904 .18899536 .20030213 .22299195 .28833009 .23899842 .3293457 .24299622 .3403473 .24299622 .36035157 .24299622 .405365 .21099854 .4423828 .16099549 .4423828 .06599426 .4423828 .0289917 .29733277 .0289917 .28833009 .0289917 .27833558 .038986207 .27833558 .040985109 .27833558 .050994874 .27833558 .051986696 .28033448 .056991579 .29634095 .083999637 .3903656 .12399292 .42037965 .1579895 .42037965 .1659851 .42037965 .18299866 .42037965 .18299866 .3883667 .18299866 .36335755 .17298889 .3373413 .1659851 .31834413 .12599182 .21231079 .10798645 .1552887 .10798645 .10827637 .10798645 .019256592 .17098999-.0107421879 .22999573-.0107421879 .2689972-.0107421879 .30299378 .0062561037 .33099366 .03425598 .31799317-.017745972 .30599977-.06674194 .2659912-.11973572 .23999024-.15385437 .20199585-.18309021 .1559906-.18309021 .14199829-.18309021 .09700012-.18005371 .07998657-.14074707 .09599304-.14074707 .10899353-.14074707 .12298584-.1287384 .1329956-.11973572 .14299011-.10673523 .14299011-.08773804 .14299011-.056747438 .115997318-.052734376 .10598755-.052734376 .08299255-.052734376 .049987794-.068740848 .049987794-.11773682 .049987794-.16796875 .09399414-.20507813 .1559906-.20507813 .25898744-.20507813 .3619995-.11373901 .3899994-.00074768069L.48599244 .38136292Z"/>
</defs>
<path transform="matrix(1.00002,0,0,-1.00006,7.428856,161.97774)" stroke-width=".19925" stroke-linecap="butt" stroke-miterlimit="10" stroke-linejoin="miter" fill="none" stroke="#929292" d="M26.49156 2.99786V5.83266M70.6442 2.99786V5.83266M114.79681 2.99786V5.83266M158.94945 2.99786V5.83266"/>
<path transform="matrix(1.00002,0,0,-1.00006,7.428856,161.97774)" stroke-width=".19925" stroke-linecap="butt" stroke-miterlimit="10" stroke-linejoin="miter" fill="none" stroke="#929292" d="M48.56789 2.28937V6.54112M92.7205 2.28937V6.54112M136.87314 2.28937V6.54112M181.02576 2.28937V6.54112"/>
<path transform="matrix(1.00002,0,0,-1.00006,7.428856,161.97774)" stroke-width=".19925" stroke-linecap="butt" stroke-miterlimit="10" stroke-linejoin="miter" fill="none" stroke="#929292" d="M2.99786 26.49156H5.83266M2.99786 70.6442H5.83266M2.99786 114.79681H5.83266M2.99786 158.94945H5.83266"/>
<path transform="matrix(1.00002,0,0,-1.00006,7.428856,161.97774)" stroke-width=".19925" stroke-linecap="butt" stroke-miterlimit="10" stroke-linejoin="miter" fill="none" stroke="#929292" d="M2.28937 48.56789H6.54112M2.28937 92.7205H6.54112M2.28937 136.87314H6.54112"/>
<path transform="matrix(1.00002,0,0,-1.00006,7.428856,161.97774)" stroke-width=".3985" stroke-linecap="butt" stroke-miterlimit="10" stroke-linejoin="miter" fill="none" stroke="#000000" d="M0 4.41525H192.27902"/>
<path transform="matrix(1.00002,0,0,-1.00006,199.71173,157.56223)" d="M1.99252 0-1.19551 1.59401 0 0-1.19551-1.59401"/>
<path transform="matrix(1.00002,0,0,-1.00006,7.428856,161.97774)" stroke-width=".3985" stroke-linecap="butt" stroke-miterlimit="10" stroke-linejoin="miter" fill="none" stroke="#000000" d="M4.41525-1.22116V158.1781"/>
<path transform="matrix(0,-1.00006,-1.00002,-0,11.844194,3.7901459)" d="M1.99252 0-1.19551 1.59401 0 0-1.19551-1.59401"/>
<use data-text="1" xlink:href="#font_1_1" transform="matrix(9.962799,0,0,-9.963197,53.50678,169.6292)"/>
<use data-text="2" xlink:href="#font_1_2" transform="matrix(9.962799,0,0,-9.963197,97.66067,169.6292)"/>
<use data-text="3" xlink:href="#font_1_3" transform="matrix(9.962799,0,0,-9.963197,141.81354,169.6292)"/>
<use data-text="4" xlink:href="#font_1_4" transform="matrix(9.962799,0,0,-9.963197,185.96744,169.6292)"/>
<use data-text="1" xlink:href="#font_1_1" transform="matrix(9.962799,0,0,-9.963197,1.2167282,116.61702)"/>
<use data-text="2" xlink:href="#font_1_2" transform="matrix(9.962799,0,0,-9.963197,1.2167282,72.46237)"/>
<use data-text="3" xlink:href="#font_1_3" transform="matrix(9.962799,0,0,-9.963197,1.2167282,28.306733)"/>
<g clip-path="url(#clip_2)">
<path transform="matrix(1.00002,0,0,-1.00006,7.428856,161.97774)" stroke-width=".79701" stroke-linecap="butt" stroke-miterlimit="10" stroke-linejoin="miter" fill="none" stroke="#0000ff" d="M9.70386 141.94362 8.05785 140.36545 11.70044 143.55728 15.34303 146.4486 18.98563 149.03939 22.62822 151.32967 26.2708 153.31943 29.91339 155.00867 33.55598 156.39742 37.19858 157.48563 40.84117 158.27335 44.48376 158.76055 48.12636 158.94722 51.76895 158.83336 55.41154 158.41904 59.05412 157.70421 62.69672 156.68885 66.33931 155.37299 69.9819 153.75652 73.6245 151.8396 77.26709 149.62218 80.90968 147.1043 84.55228 144.28585 88.19487 141.1668 91.83745 137.74733"/>
<path transform="matrix(-.7218145,.6920715,.6920439,.7218433,17.539698,19.63559)" d="M6.63033 0 2.08023 1.5167 .56355 0 2.08023-1.5167Z" fill="#0000ff"/>
<path transform="matrix(-.7218145,.6920715,.6920439,.7218433,17.539698,19.63559)" stroke-width=".79701" stroke-linecap="butt" stroke-miterlimit="10" stroke-linejoin="miter" fill="none" stroke="#0000ff" d="M6.63033 0 2.08023 1.5167 .56355 0 2.08023-1.5167Z"/>
<path transform="matrix(1.00002,0,0,-1.00006,7.428856,161.97774)" stroke-width=".79701" stroke-linecap="butt" stroke-miterlimit="10" stroke-linejoin="miter" fill="none" stroke="#0000ff" d="M93.60356 49.45972 96.14233 52.12222 98.6811 54.93088 101.2199 57.88535 103.75867 60.9858 106.29744 64.23221 108.83621 67.62462 111.37498 71.16318 113.91377 74.84753 116.45255 78.6779 118.99132 82.65422 121.53009 86.7765 124.06888 91.04497 126.60765 95.45923 129.14643 100.01947 131.6852 104.7257 134.22397 109.57788 136.76276 114.57626 139.30153 119.72041 141.8403 125.01054 144.37908 130.44681 146.91786 136.02866 149.45664 141.75707 151.9954 147.63097 151.68741 146.90012"/>
<path transform="matrix(.38853777,-.92144528,-.9214085,-.3885533,158.90033,15.5881199)" d="M6.63033 0 2.08023 1.5167 .56355 0 2.08023-1.5167Z" fill="#0000ff"/>
<path transform="matrix(.38853777,-.92144528,-.9214085,-.3885533,158.90033,15.5881199)" stroke-width=".79701" stroke-linecap="butt" stroke-miterlimit="10" stroke-linejoin="miter" fill="none" stroke="#0000ff" d="M6.63033 0 2.08023 1.5167 .56355 0 2.08023-1.5167Z"/>
</g>
<path transform="matrix(1.00002,0,0,-1.00006,7.428856,161.97774)" d="M96.70561 92.7205C96.70561 94.92145 94.92145 96.70561 92.7205 96.70561 90.51956 96.70561 88.7354 94.92145 88.7354 92.7205 88.7354 90.51956 90.51956 88.7354 92.7205 88.7354 94.92145 88.7354 96.70561 90.51956 96.70561 92.7205ZM92.7205 92.7205" fill="#0000ff"/>
<path transform="matrix(1.00002,0,0,-1.00006,7.428856,161.97774)" stroke-width=".3985" stroke-linecap="butt" stroke-miterlimit="10" stroke-linejoin="miter" fill="none" stroke="#0000ff" d="M96.70561 92.7205C96.70561 94.92145 94.92145 96.70561 92.7205 96.70561 90.51956 96.70561 88.7354 94.92145 88.7354 92.7205 88.7354 90.51956 90.51956 88.7354 92.7205 88.7354 94.92145 88.7354 96.70561 90.51956 96.70561 92.7205ZM92.7205 92.7205"/>
<path transform="matrix(1.00002,0,0,-1.00006,7.428856,161.97774)" d="" fill="#0000ff"/>
<path transform="matrix(1.00002,0,0,-1.00006,7.428856,161.97774)" stroke-width=".3985" stroke-linecap="butt" stroke-miterlimit="10" stroke-linejoin="miter" fill="none" stroke="#0000ff" d=""/>
<path transform="matrix(1.00002,0,0,-1.00006,7.428856,161.97774)" d="M96.70561 136.87314C96.70561 139.07408 94.92145 140.85825 92.7205 140.85825 90.51956 140.85825 88.7354 139.07408 88.7354 136.87314 88.7354 134.6722 90.51956 132.88803 92.7205 132.88803 94.92145 132.88803 96.70561 134.6722 96.70561 136.87314ZM92.7205 136.87314" fill="#ffffff"/>
<path transform="matrix(1.00002,0,0,-1.00006,7.428856,161.97774)" stroke-width=".3985" stroke-linecap="butt" stroke-miterlimit="10" stroke-linejoin="miter" fill="none" stroke="#0000ff" d="M96.70561 136.87314C96.70561 139.07408 94.92145 140.85825 92.7205 140.85825 90.51956 140.85825 88.7354 139.07408 88.7354 136.87314 88.7354 134.6722 90.51956 132.88803 92.7205 132.88803 94.92145 132.88803 96.70561 134.6722 96.70561 136.87314ZM92.7205 136.87314"/>
<path transform="matrix(1.00002,0,0,-1.00006,7.428856,161.97774)" d="" fill="#ffffff"/>
<path transform="matrix(1.00002,0,0,-1.00006,7.428856,161.97774)" stroke-width=".3985" stroke-linecap="butt" stroke-miterlimit="10" stroke-linejoin="miter" fill="none" stroke="#0000ff" d=""/>
<path transform="matrix(1.00002,0,0,-1.00006,7.428856,161.97774)" d="M96.70561 48.56789C96.70561 50.76883 94.92145 52.553 92.7205 52.553 90.51956 52.553 88.7354 50.76883 88.7354 48.56789 88.7354 46.36694 90.51956 44.58278 92.7205 44.58278 94.92145 44.58278 96.70561 46.36694 96.70561 48.56789ZM92.7205 48.56789" fill="#ffffff"/>
<path transform="matrix(1.00002,0,0,-1.00006,7.428856,161.97774)" stroke-width=".3985" stroke-linecap="butt" stroke-miterlimit="10" stroke-linejoin="miter" fill="none" stroke="#0000ff" d="M96.70561 48.56789C96.70561 50.76883 94.92145 52.553 92.7205 52.553 90.51956 52.553 88.7354 50.76883 88.7354 48.56789 88.7354 46.36694 90.51956 44.58278 92.7205 44.58278 94.92145 44.58278 96.70561 46.36694 96.70561 48.56789ZM92.7205 48.56789"/>
<path transform="matrix(1.00002,0,0,-1.00006,7.428856,161.97774)" d="" fill="#ffffff"/>
<path transform="matrix(1.00002,0,0,-1.00006,7.428856,161.97774)" stroke-width=".3985" stroke-linecap="butt" stroke-miterlimit="10" stroke-linejoin="miter" fill="none" stroke="#0000ff" d=""/>
<use data-text="x" xlink:href="#font_3_1" transform="matrix(9.962799,0,0,-9.963197,192.48856,154.04227)"/>
<use data-text="y" xlink:href="#font_3_2" transform="matrix(9.962799,0,0,-9.963197,15.364014,9.623596)"/>
</svg>
